<svg xmlns="http://www.w3.org/2000/svg" version="1.1" xmlns:xlink="http://www.w3.org/1999/xlink" width="512" height="512" x="0" y="0" viewBox="0 0 32 32" style="enable-background:new 0 0 512 512" xml:space="preserve">
    <g>
        <path d="M29 5v6c0 1.654-1.346 3-3 3h-6c-1.654 0-3-1.346-3-3V5c0-1.654 1.346-3 3-3h6c1.654 0 3 1.346 3 3zm0 16v6c0 1.654-1.346 3-3 3h-6c-1.654 0-3-1.346-3-3v-6c0-1.654 1.346-3 3-3h6c1.654 0 3 1.346 3 3zm-2 0c0-.551-.449-1-1-1h-6c-.551 0-1 .449-1 1v6c0 .551.449 1 1 1h6c.551 0 1-.449 1-1zm-15.78 2.375L9 26.15V24a1 1 0 0 0-2 0v2.15l-2.22-2.775a.999.999 0 1 0-1.56 1.25l4 5a1 1 0 0 0 1.56 0l4-5a1 1 0 1 0-1.56-1.25zm-2.44-21c-.378-.474-1.182-.474-1.56 0l-4 5a1 1 0 1 0 1.56 1.25L7 5.85V20a1 1 0 0 0 2 0V5.85l2.22 2.775a.997.997 0 0 0 1.405.156 1 1 0 0 0 .156-1.406z" fill="#000000" data-original="#000000"></path>
    </g>
</svg>